<svg width="48" height="48" viewBox="0 0 48 48" fill="none" xmlns="http://www.w3.org/2000/svg">
<g id="Group">
<path id="Vector" d="M47.9772 15.3708C47.9669 13.7855 47.8976 12.171 47.591 10.6222C46.4997 5.1058 42.398 1.20754 36.8553 0.262509C36.2572 0.160318 35.6553 0.0871905 35.0552 0C31.3679 0 27.6797 0 23.9924 0C22.4295 0 20.8676 0 19.3047 0C17.9922 0 16.6796 0 15.3671 0C15.1514 0.0225008 14.9358 0.0534393 14.7192 0.0665648C13.4264 0.14063 12.1166 0.103129 10.8444 0.301885C7.10367 0.887843 4.23107 2.87822 2.14694 6.00677C0.598133 8.33091 0.0309258 10.9466 0.0243631 13.7002C0.00748748 20.4963 -0.0178259 27.2925 0.0187379 34.0887C0.0253006 35.3571 0.206244 36.6472 0.484691 37.8875C1.17378 40.957 2.8304 43.4284 5.36267 45.3128C7.83682 47.155 10.6503 47.9651 13.6889 47.9819C19.9535 48.0166 26.219 47.9894 32.4836 47.996C34.2827 47.9979 36.0697 47.9491 37.8341 47.5254C41.7698 46.5794 44.7081 44.3846 46.5316 40.7358C47.635 38.5288 47.9819 36.1681 47.9876 33.7427C48.0016 27.6188 48.0185 21.4948 47.9772 15.3708ZM43.6693 33.7193C43.658 35.3075 43.3721 36.8581 42.7439 38.3263C41.5927 41.0189 39.5113 42.6005 36.694 43.1987C35.6178 43.4274 34.4974 43.5446 33.3968 43.5484C27.1162 43.5737 20.8348 43.5559 14.5533 43.538C12.6004 43.5324 10.6944 43.2568 8.92435 42.3568C6.76709 41.2598 5.51455 39.4607 4.87515 37.1731C4.35389 35.3065 4.44951 33.3968 4.44014 31.4945C4.42701 28.9632 4.43733 26.4318 4.43733 23.9014C4.45139 23.9014 4.46451 23.9014 4.47858 23.9014C4.47858 20.3398 4.43639 16.7771 4.49451 13.2155C4.5292 11.0835 5.23329 9.14656 6.61709 7.48807C7.85088 6.00864 9.47656 5.22112 11.3141 4.78048C12.8085 4.42234 14.3245 4.49078 15.8368 4.4889C21.8839 4.4814 27.93 4.49078 33.9771 4.48234C35.6056 4.47953 37.1891 4.70078 38.6685 5.39925C41.407 6.69304 43.0008 8.91312 43.4593 11.8523C43.7237 13.553 43.7265 15.3043 43.7302 17.034C43.7405 22.5945 43.7068 28.1569 43.6693 33.7193Z" fill="white"/>
<path id="Vector_2" d="M24.0828 11.5381C17.3194 11.4331 11.7177 16.9411 11.6052 23.802C11.4936 30.5869 16.9744 36.183 23.839 36.2918C30.6333 36.3996 36.2435 30.9038 36.3626 24.0223C36.3776 17.272 30.9933 11.6459 24.0828 11.5381ZM24.0012 31.8375C19.6708 31.8722 16.0716 28.2777 16.0641 23.9116C16.0566 19.5756 19.6783 15.9529 24.0003 15.9726C28.3129 15.9914 31.8915 19.5634 31.9309 23.8882C31.9693 28.1962 28.372 31.8029 24.0012 31.8375Z" fill="white"/>
<path id="Vector_3" d="M36.9148 8.43748C35.3519 8.40936 34.0891 9.64034 34.0572 11.2257C34.0263 12.7258 35.2629 13.9905 36.7976 14.0289C38.3511 14.0683 39.6374 12.8148 39.6561 11.2454C39.674 9.74253 38.428 8.46561 36.9148 8.43748Z" fill="white"/>
</g>
</svg>
