<svg width="48" height="48" viewBox="0 0 48 48" fill="none" xmlns="http://www.w3.org/2000/svg">
<path id="Vector" d="M27.7614 39.5574C27.7614 36.8709 27.7614 34.1843 27.7614 31.4979C27.7614 31.4526 27.7614 31.4073 27.7614 31.362C27.7618 31.1272 27.7497 31.1424 27.9831 31.1424C29.6704 31.1422 31.3577 31.1424 33.045 31.1424C33.3432 31.1424 33.3457 31.1429 33.3896 30.8542C33.5604 29.7301 33.7284 28.6056 33.8994 27.4818C34.0581 26.4397 34.2195 25.3981 34.3793 24.3563C34.3849 24.3191 34.3885 24.2815 34.3922 24.2439C34.3982 24.1784 34.3685 24.1454 34.3026 24.1454C34.2425 24.1454 34.1826 24.1447 34.1225 24.1447C32.1203 24.1447 30.1179 24.1447 28.1157 24.1447C28.0632 24.1447 28.0108 24.1454 27.9581 24.1445C27.7641 24.142 27.7616 24.1417 27.7616 23.9448C27.7609 22.4505 27.7578 20.9565 27.763 19.4621C27.7657 18.7008 27.9369 17.9803 28.3581 17.3382C28.8472 16.5925 29.5603 16.1799 30.4114 15.988C30.8514 15.8887 31.2992 15.8532 31.7493 15.8525C32.6418 15.8513 33.5341 15.8523 34.4266 15.852C34.479 15.852 34.5317 15.8504 34.5842 15.8518C34.6569 15.8538 34.6972 15.8255 34.6933 15.7467C34.6911 15.7016 34.6933 15.656 34.6933 15.6109C34.6936 13.7924 34.6936 11.9741 34.6938 10.1555C34.6938 10.1329 34.6933 10.1102 34.6929 10.0876C34.6895 9.91604 34.6863 9.90472 34.5292 9.8807C34.1965 9.82972 33.8632 9.78327 33.5294 9.73931C32.6166 9.61945 31.6998 9.53947 30.7819 9.47489C30.5876 9.4613 30.3923 9.46198 30.1976 9.45563C29.9657 9.44793 29.733 9.43456 29.5022 9.4341C28.0542 9.43184 26.6334 9.60812 25.2824 10.1707C23.1805 11.0458 21.7417 12.57 20.9323 14.7024C20.6262 15.5088 20.442 16.3446 20.3412 17.2018C20.2739 17.7721 20.2516 18.3431 20.2525 18.9165C20.255 20.5767 20.2536 22.2369 20.2532 23.8973C20.2532 24.1508 20.2845 24.1447 20.0135 24.1447C18.1763 24.1445 16.3388 24.1447 14.5016 24.1447C14.4492 24.1447 14.3967 24.144 14.3441 24.1449C14.1509 24.1481 14.1487 24.1483 14.1485 24.3486C14.1478 25.6843 14.148 27.02 14.148 28.3557C14.148 29.1934 14.148 30.031 14.148 30.8687C14.148 30.9215 14.1505 30.9745 14.1478 31.0271C14.1433 31.1173 14.1899 31.1467 14.2718 31.1426C14.3243 31.1402 14.3767 31.1424 14.4294 31.1424C16.2817 31.1424 18.134 31.1422 19.9862 31.1426C20.2876 31.1426 20.253 31.1211 20.253 31.4075C20.2534 36.8561 20.2534 42.3045 20.2532 47.7531C20.2532 48.0248 20.2539 48.0187 19.9759 47.9709C18.8077 47.7708 17.6595 47.4896 16.5333 47.1185C14.5867 46.4768 12.752 45.5983 11.0291 44.4833C9.02874 43.1886 7.25996 41.6268 5.71628 39.8076C4.57303 38.4603 3.59366 37.0002 2.76914 35.4346C1.86697 33.7214 1.18337 31.9239 0.7154 30.044C0.44754 28.9681 0.260713 27.8778 0.138038 26.7748C0.00433324 25.5719 -0.0247037 24.3663 0.0187392 23.1593C0.0801894 21.4511 0.330492 19.7685 0.755917 18.1129C1.51876 15.1446 2.79841 12.4223 4.59239 9.94459C6.33731 7.53445 8.45363 5.51674 10.9364 3.89079C13.2623 2.36748 15.779 1.28714 18.4792 0.643876C19.5736 0.383081 20.6827 0.202949 21.8027 0.101214C23.0815 -0.0150228 24.3629 -0.0331493 25.6439 0.0572567C28.4801 0.257328 31.201 0.930502 33.797 2.10012C36.043 3.11203 38.0873 4.44183 39.9265 6.08795C41.9555 7.904 43.6396 10.0012 44.9641 12.3867C45.9588 14.178 46.7157 16.0668 47.226 18.056C47.4961 19.1085 47.7001 20.1727 47.8302 21.2508C47.9279 22.0597 47.9758 22.8722 47.994 23.6874C48.0161 24.6692 47.9769 25.6483 47.8774 26.6239C47.6316 29.0318 47.0464 31.3536 46.1042 33.5827C45.2126 35.6922 44.0491 37.6372 42.6089 39.4126C40.8773 41.5477 38.8429 43.3368 36.5069 44.7756C34.4021 46.0719 32.1493 47.0156 29.7539 47.6124C29.1651 47.759 28.5704 47.8777 27.9727 47.9824C27.7654 48.0187 27.7618 48.0169 27.7618 47.7984C27.7614 45.9948 27.7616 44.1912 27.7616 42.3877C27.7614 41.4442 27.7614 40.5009 27.7614 39.5574Z" fill="white"/>
</svg>
