<svg width="1134" height="500" viewBox="0 0 1134 500" fill="none" xmlns="http://www.w3.org/2000/svg">
<path d="M170.116 181.602C165.994 181.602 162.514 181.23 159.676 180.487C156.838 179.676 154.541 178.595 152.784 177.244C151.027 175.892 149.743 174.372 148.932 172.682C148.121 170.926 147.716 169.169 147.716 167.412C147.716 165.452 148.155 163.864 149.033 162.648C149.912 161.364 151.094 160.418 152.581 159.81C154.135 159.202 155.791 158.898 157.548 158.898C157.615 162.344 158.189 165.351 159.271 167.919C160.352 170.486 161.906 172.48 163.933 173.899C166.028 175.25 168.528 175.926 171.434 175.926C175.623 175.926 178.867 174.879 181.164 172.784C183.529 170.621 184.712 167.783 184.712 164.27C184.712 161.905 184.137 159.877 182.988 158.188C181.84 156.499 180.049 154.945 177.616 153.526C175.184 152.107 172.042 150.62 168.19 149.066C164.879 147.715 162.007 146.262 159.575 144.708C157.142 143.153 155.182 141.498 153.696 139.741C152.209 137.984 151.094 136.058 150.351 133.964C149.675 131.801 149.337 129.402 149.337 126.767C149.337 122.78 150.385 119.334 152.48 116.429C154.574 113.455 157.412 111.192 160.994 109.638C164.575 108.016 168.663 107.205 173.258 107.205C177.853 107.205 181.671 107.746 184.712 108.827C187.752 109.84 190.016 111.226 191.503 112.982C193.057 114.739 193.834 116.665 193.834 118.76C193.834 121.057 192.922 122.949 191.097 124.436C189.273 125.855 186.57 126.564 182.988 126.564C182.988 124.605 182.617 122.578 181.874 120.483C181.198 118.388 180.049 116.631 178.427 115.212C176.873 113.726 174.745 112.982 172.042 112.982C169.947 112.982 168.055 113.388 166.366 114.199C164.744 114.942 163.46 116.091 162.514 117.645C161.568 119.131 161.095 120.956 161.095 123.118C161.095 125.348 161.568 127.308 162.514 128.997C163.46 130.686 165.116 132.308 167.481 133.862C169.846 135.416 173.19 137.072 177.515 138.829C181.907 140.586 185.489 142.478 188.259 144.505C191.097 146.464 193.192 148.728 194.543 151.296C195.962 153.796 196.672 156.735 196.672 160.114C196.672 164.439 195.557 168.223 193.327 171.466C191.165 174.642 188.09 177.142 184.103 178.967C180.184 180.724 175.522 181.602 170.116 181.602ZM240.794 181.602C233.294 181.602 227.077 180.048 222.144 176.939C217.212 173.831 213.495 169.473 210.995 163.864C208.562 158.256 207.346 151.701 207.346 144.201C207.346 136.7 208.562 130.18 210.995 124.639C213.495 119.098 217.212 114.807 222.144 111.766C227.145 108.658 233.395 107.104 240.896 107.104C248.058 107.104 254.106 108.658 259.039 111.766C263.972 114.807 267.722 119.131 270.29 124.74C272.857 130.281 274.141 136.802 274.141 144.302C274.141 151.803 272.857 158.357 270.29 163.966C267.722 169.507 263.938 173.831 258.937 176.939C254.005 180.048 247.957 181.602 240.794 181.602ZM240.794 175.419C244.241 175.419 247.112 174.743 249.41 173.392C251.775 171.973 253.667 169.946 255.086 167.31C256.572 164.608 257.654 161.33 258.329 157.479C259.005 153.627 259.343 149.235 259.343 144.302C259.343 139.437 259.005 135.079 258.329 131.227C257.654 127.375 256.606 124.132 255.187 121.496C253.768 118.794 251.876 116.766 249.511 115.415C247.146 113.996 244.274 113.286 240.896 113.286C237.517 113.286 234.611 113.996 232.179 115.415C229.814 116.766 227.888 118.794 226.401 121.496C224.982 124.132 223.935 127.375 223.259 131.227C222.584 135.079 222.246 139.437 222.246 144.302C222.246 149.235 222.584 153.627 223.259 157.479C223.935 161.33 224.982 164.608 226.401 167.31C227.888 169.946 229.814 171.973 232.179 173.392C234.611 174.743 237.483 175.419 240.794 175.419ZM305.92 181.602C301.798 181.602 298.318 181.23 295.48 180.487C292.642 179.676 290.345 178.595 288.588 177.244C286.831 175.892 285.547 174.372 284.736 172.682C283.925 170.926 283.52 169.169 283.52 167.412C283.52 165.452 283.959 163.864 284.838 162.648C285.716 161.364 286.899 160.418 288.385 159.81C289.939 159.202 291.595 158.898 293.352 158.898C293.419 162.344 293.994 165.351 295.075 167.919C296.156 170.486 297.71 172.48 299.737 173.899C301.832 175.25 304.332 175.926 307.238 175.926C311.427 175.926 314.671 174.879 316.968 172.784C319.333 170.621 320.516 167.783 320.516 164.27C320.516 161.905 319.941 159.877 318.793 158.188C317.644 156.499 315.853 154.945 313.421 153.526C310.988 152.107 307.846 150.62 303.994 149.066C300.683 147.715 297.812 146.262 295.379 144.708C292.946 143.153 290.987 141.498 289.5 139.741C288.014 137.984 286.899 136.058 286.155 133.964C285.48 131.801 285.142 129.402 285.142 126.767C285.142 122.78 286.189 119.334 288.284 116.429C290.379 113.455 293.217 111.192 296.798 109.638C300.379 108.016 304.467 107.205 309.062 107.205C313.657 107.205 317.475 107.746 320.516 108.827C323.557 109.84 325.82 111.226 327.307 112.982C328.861 114.739 329.638 116.665 329.638 118.76C329.638 121.057 328.726 122.949 326.901 124.436C325.077 125.855 322.374 126.564 318.793 126.564C318.793 124.605 318.421 122.578 317.678 120.483C317.002 118.388 315.853 116.631 314.232 115.212C312.677 113.726 310.549 112.982 307.846 112.982C305.751 112.982 303.859 113.388 302.17 114.199C300.548 114.942 299.264 116.091 298.318 117.645C297.372 119.131 296.899 120.956 296.899 123.118C296.899 125.348 297.372 127.308 298.318 128.997C299.264 130.686 300.92 132.308 303.285 133.862C305.65 135.416 308.995 137.072 313.319 138.829C317.712 140.586 321.293 142.478 324.063 144.505C326.901 146.464 328.996 148.728 330.348 151.296C331.767 153.796 332.476 156.735 332.476 160.114C332.476 164.439 331.361 168.223 329.131 171.466C326.969 174.642 323.894 177.142 319.908 178.967C315.988 180.724 311.326 181.602 305.92 181.602ZM351.002 180.588V175.622H354.55C355.766 175.622 356.847 175.487 357.793 175.216C358.74 174.879 359.483 174.237 360.023 173.291C360.632 172.345 360.936 170.892 360.936 168.932V113.996H352.219C350.192 113.996 348.604 114.334 347.455 115.01C346.306 115.618 345.462 116.496 344.921 117.645C344.38 118.794 344.009 120.111 343.806 121.598L343.198 127.173H337.015L337.522 108.219H398.337L398.844 127.173H392.661L391.951 121.598C391.816 120.111 391.444 118.794 390.836 117.645C390.296 116.496 389.451 115.618 388.302 115.01C387.154 114.334 385.566 113.996 383.539 113.996H374.822V168.831C374.822 170.79 375.092 172.277 375.633 173.291C376.173 174.237 376.95 174.879 377.964 175.216C378.977 175.487 380.059 175.622 381.207 175.622H384.755V180.588H351.002ZM403.475 180.588V175.622H406.617C407.834 175.622 408.915 175.487 409.861 175.216C410.807 174.879 411.55 174.237 412.091 173.291C412.699 172.277 413.003 170.79 413.003 168.831V119.976C413.003 117.949 412.699 116.462 412.091 115.516C411.55 114.57 410.807 113.962 409.861 113.692C408.915 113.354 407.834 113.185 406.617 113.185H403.475V108.219H436.315V113.185H433.173C432.024 113.185 430.943 113.354 429.93 113.692C428.984 113.962 428.24 114.57 427.7 115.516C427.159 116.462 426.889 117.949 426.889 119.976V168.831C426.889 170.79 427.159 172.277 427.7 173.291C428.24 174.237 428.984 174.879 429.93 175.216C430.943 175.487 432.024 175.622 433.173 175.622H436.315V180.588H403.475ZM442.771 180.588V175.622H445.913C447.062 175.622 448.11 175.487 449.056 175.216C450.002 174.946 450.779 174.372 451.387 173.493C451.995 172.547 452.299 171.162 452.299 169.338V119.976C452.299 117.949 451.995 116.462 451.387 115.516C450.846 114.57 450.103 113.962 449.157 113.692C448.211 113.354 447.13 113.185 445.913 113.185H442.771V108.219H496.998L497.505 126.564H491.119L490.612 121.902C490.477 120.28 490.106 118.895 489.498 117.746C488.957 116.598 488.18 115.685 487.166 115.01C486.153 114.334 484.835 113.996 483.213 113.996H466.185V139.944H490.308V145.62H466.185V174.811H486.153C487.774 174.811 489.092 174.473 490.106 173.797C491.187 173.054 492.031 172.108 492.64 170.959C493.248 169.743 493.653 168.392 493.856 166.905L494.565 162.243H500.951L500.242 180.588H442.771ZM507.803 180.588V175.622H510.945C512.094 175.622 513.141 175.487 514.087 175.216C515.101 174.879 515.878 174.237 516.418 173.291C517.027 172.277 517.331 170.79 517.331 168.831V119.571C517.331 117.679 517.027 116.293 516.418 115.415C515.81 114.469 515.033 113.861 514.087 113.591C513.141 113.32 512.094 113.185 510.945 113.185H507.803V108.219H528.784L564.766 160.824V119.571C564.766 117.679 564.462 116.293 563.854 115.415C563.246 114.469 562.469 113.861 561.523 113.591C560.577 113.32 559.53 113.185 558.381 113.185H555.239V108.219H581.288V113.185H578.146C577.064 113.185 576.017 113.354 575.004 113.692C573.99 113.962 573.213 114.57 572.672 115.516C572.132 116.462 571.861 117.949 571.861 119.976V180.588H563.347L524.324 123.828V168.831C524.324 170.79 524.595 172.277 525.135 173.291C525.743 174.237 526.52 174.879 527.467 175.216C528.48 175.487 529.561 175.622 530.71 175.622H533.852V180.588H507.803ZM586.791 180.588V175.622H589.933C591.15 175.622 592.231 175.487 593.177 175.216C594.123 174.879 594.866 174.237 595.407 173.291C596.015 172.277 596.319 170.79 596.319 168.831V119.976C596.319 117.949 596.015 116.462 595.407 115.516C594.866 114.57 594.123 113.962 593.177 113.692C592.231 113.354 591.15 113.185 589.933 113.185H586.791V108.219H619.631V113.185H616.489C615.34 113.185 614.259 113.354 613.246 113.692C612.3 113.962 611.556 114.57 611.016 115.516C610.475 116.462 610.205 117.949 610.205 119.976V168.831C610.205 170.79 610.475 172.277 611.016 173.291C611.556 174.237 612.3 174.879 613.246 175.216C614.259 175.487 615.34 175.622 616.489 175.622H619.631V180.588H586.791Z" fill="#B84941"/>
<path d="M330.374 416.087V411.12H333.516C334.665 411.12 335.712 410.985 336.658 410.715C337.604 410.445 338.381 409.87 338.99 408.992C339.598 408.046 339.902 406.661 339.902 404.836V355.069C339.902 353.177 339.598 351.792 338.99 350.914C338.381 349.968 337.604 349.359 336.658 349.089C335.712 348.819 334.665 348.684 333.516 348.684H330.374V343.717H384.601L385.108 362.063H378.722L378.215 357.299C378.012 355.61 377.573 354.191 376.898 353.042C376.289 351.826 375.411 350.947 374.262 350.407C373.113 349.799 371.694 349.495 370.005 349.495H353.686V377.773H377.81V383.348H353.686V404.329C353.686 406.289 353.957 407.776 354.497 408.789C355.106 409.735 355.883 410.377 356.829 410.715C357.842 410.985 358.923 411.12 360.072 411.12H365.241V416.087H330.374ZM381.972 416.087V411.12H383.492C384.776 411.12 385.857 410.918 386.736 410.512C387.614 410.107 388.425 409.363 389.168 408.282C389.912 407.201 390.689 405.613 391.499 403.518L413.697 343.717H425.252L447.145 404.532C447.753 406.289 448.395 407.64 449.071 408.586C449.814 409.532 450.625 410.208 451.504 410.614C452.45 410.951 453.497 411.12 454.646 411.12H456.267V416.087H424.948V411.12H428.293C429.644 411.12 430.793 410.782 431.739 410.107C432.752 409.431 433.259 408.35 433.259 406.863C433.259 406.39 433.192 405.917 433.056 405.444C432.989 404.904 432.887 404.431 432.752 404.025C432.685 403.552 432.55 403.113 432.347 402.708L428.698 392.065H403.257L400.014 401.593C399.811 402.133 399.608 402.708 399.405 403.316C399.27 403.924 399.135 404.532 399 405.14C398.932 405.748 398.899 406.289 398.899 406.762C398.899 408.249 399.405 409.363 400.419 410.107C401.433 410.782 402.716 411.12 404.271 411.12H407.717V416.087H381.972ZM405.284 386.389H426.671L420.995 369.259C420.454 367.57 419.88 365.813 419.272 363.989C418.731 362.164 418.19 360.374 417.65 358.617C417.177 356.86 416.738 355.204 416.332 353.65C416.062 354.731 415.724 355.88 415.319 357.096C414.981 358.313 414.609 359.563 414.204 360.847C413.866 362.131 413.46 363.448 412.987 364.8C412.582 366.083 412.143 367.367 411.67 368.651L405.284 386.389ZM459.547 416.087V411.12H462.689C463.837 411.12 464.885 410.985 465.831 410.715C466.777 410.445 467.554 409.87 468.162 408.992C468.77 408.046 469.074 406.661 469.074 404.836V355.069C469.074 353.177 468.77 351.792 468.162 350.914C467.554 349.968 466.777 349.359 465.831 349.089C464.885 348.819 463.837 348.684 462.689 348.684H459.547V343.717H486.406L504.854 396.119L522.693 343.717H549.046V348.684H545.904C544.755 348.684 543.674 348.853 542.66 349.19C541.714 349.461 540.937 350.069 540.329 351.015C539.789 351.961 539.518 353.447 539.518 355.475V404.329C539.518 406.289 539.789 407.776 540.329 408.789C540.937 409.735 541.714 410.377 542.66 410.715C543.674 410.985 544.755 411.12 545.904 411.12H549.046V416.087H518.638V411.12H519.449C520.868 411.12 522.051 410.985 522.997 410.715C524.01 410.445 524.787 409.904 525.328 409.093C525.869 408.215 526.139 406.931 526.139 405.242V352.839L504.651 416.087H498.265L476.068 352.941V404.329C476.068 406.289 476.372 407.776 476.98 408.789C477.588 409.735 478.433 410.377 479.514 410.715C480.663 410.985 481.98 411.12 483.467 411.12H483.974V416.087H459.547ZM555.56 416.087V411.12H558.702C559.918 411.12 560.999 410.985 561.945 410.715C562.891 410.377 563.635 409.735 564.175 408.789C564.783 407.776 565.087 406.289 565.087 404.329V355.475C565.087 353.447 564.783 351.961 564.175 351.015C563.635 350.069 562.891 349.461 561.945 349.19C560.999 348.853 559.918 348.684 558.702 348.684H555.56V343.717H588.4V348.684H585.258C584.109 348.684 583.028 348.853 582.014 349.19C581.068 349.461 580.325 350.069 579.784 351.015C579.244 351.961 578.974 353.447 578.974 355.475V404.329C578.974 406.289 579.244 407.776 579.784 408.789C580.325 409.735 581.068 410.377 582.014 410.715C583.028 410.985 584.109 411.12 585.258 411.12H588.4V416.087H555.56ZM633.676 417.1C625.5 417.1 618.709 415.546 613.303 412.438C607.897 409.33 603.877 405.005 601.241 399.464C598.606 393.856 597.288 387.301 597.288 379.801C597.288 372.503 598.674 366.083 601.444 360.543C604.215 354.934 608.337 350.576 613.81 347.467C619.351 344.291 626.142 342.704 634.183 342.704C639.589 342.704 644.082 343.21 647.664 344.224C651.245 345.237 653.914 346.623 655.671 348.38C657.495 350.136 658.408 352.096 658.408 354.258C658.408 356.556 657.36 358.482 655.265 360.036C653.238 361.59 650.4 362.367 646.751 362.367C646.751 359.867 646.278 357.603 645.332 355.576C644.454 353.481 643.069 351.826 641.177 350.609C639.352 349.393 636.92 348.785 633.879 348.785C628.608 348.785 624.385 350.001 621.209 352.434C618.033 354.867 615.702 358.38 614.215 362.975C612.796 367.57 612.087 373.179 612.087 379.801C612.087 386.423 612.83 392.031 614.317 396.626C615.871 401.153 618.337 404.633 621.716 407.066C625.094 409.431 629.588 410.614 635.196 410.614C636.751 410.614 638.237 410.546 639.656 410.411C641.143 410.276 642.528 410.039 643.812 409.701V394.295C643.812 392.403 643.474 390.95 642.798 389.936C642.19 388.923 641.312 388.213 640.163 387.808C639.082 387.403 637.764 387.2 636.21 387.2H635.196V382.233H664.996V387.2H663.982C662.631 387.2 661.482 387.436 660.536 387.909C659.59 388.315 658.847 389.058 658.306 390.139C657.833 391.153 657.597 392.673 657.597 394.7V411.931C653.88 413.688 650.096 415.006 646.245 415.884C642.393 416.695 638.203 417.1 633.676 417.1ZM670.677 416.087V411.12H673.819C675.035 411.12 676.116 410.985 677.062 410.715C678.008 410.377 678.752 409.735 679.292 408.789C679.9 407.776 680.204 406.289 680.204 404.329V355.475C680.204 353.447 679.9 351.961 679.292 351.015C678.752 350.069 678.008 349.461 677.062 349.19C676.116 348.853 675.035 348.684 673.819 348.684H670.677V343.717H703.517V348.684H700.375C699.226 348.684 698.179 348.819 697.233 349.089C696.287 349.359 695.509 349.968 694.901 350.914C694.361 351.792 694.09 353.177 694.09 355.069V410.309H713.349C715.038 410.309 716.457 409.938 717.606 409.195C718.822 408.451 719.768 407.404 720.444 406.052C721.119 404.633 721.626 403.079 721.964 401.39L723.282 393.788H728.856L728.147 416.087H670.677ZM735.708 416.087V411.12H738.85C740.067 411.12 741.148 410.985 742.094 410.715C743.04 410.377 743.783 409.735 744.324 408.789C744.932 407.776 745.236 406.289 745.236 404.329V355.475C745.236 353.447 744.932 351.961 744.324 351.015C743.783 350.069 743.04 349.461 742.094 349.19C741.148 348.853 740.067 348.684 738.85 348.684H735.708V343.717H768.548V348.684H765.406C764.258 348.684 763.176 348.853 762.163 349.19C761.217 349.461 760.474 350.069 759.933 351.015C759.392 351.961 759.122 353.447 759.122 355.475V404.329C759.122 406.289 759.392 407.776 759.933 408.789C760.474 409.735 761.217 410.377 762.163 410.715C763.176 410.985 764.258 411.12 765.406 411.12H768.548V416.087H735.708ZM775.004 416.087V411.12H778.147C779.295 411.12 780.343 410.985 781.289 410.715C782.235 410.445 783.012 409.87 783.62 408.992C784.228 408.046 784.532 406.661 784.532 404.836V355.475C784.532 353.447 784.228 351.961 783.62 351.015C783.079 350.069 782.336 349.461 781.39 349.19C780.444 348.853 779.363 348.684 778.147 348.684H775.004V343.717H829.231L829.738 362.063H823.352L822.846 357.4C822.71 355.779 822.339 354.393 821.731 353.245C821.19 352.096 820.413 351.184 819.399 350.508C818.386 349.832 817.068 349.495 815.446 349.495H798.418V375.442H822.541V381.118H798.418V410.309H818.386C820.008 410.309 821.325 409.972 822.339 409.296C823.42 408.553 824.265 407.607 824.873 406.458C825.481 405.242 825.886 403.89 826.089 402.404L826.799 397.741H833.184L832.475 416.087H775.004Z" fill="#B84941"/>
<path d="M82.665 298.338V293.371H85.8071C86.9559 293.371 88.0032 293.236 88.9493 292.966C89.8953 292.696 90.6723 292.121 91.2805 291.243C91.8886 290.297 92.1927 288.912 92.1927 287.087V237.726C92.1927 235.698 91.8886 234.212 91.2805 233.266C90.7399 232.32 89.9966 231.712 89.0506 231.441C88.1046 231.104 87.0234 230.935 85.8071 230.935H82.665V225.968H136.892L137.399 244.314H131.013L130.506 239.651C130.371 238.03 129.999 236.644 129.391 235.496C128.851 234.347 128.074 233.435 127.06 232.759C126.046 232.083 124.729 231.745 123.107 231.745H106.079V257.693H130.202V263.369H106.079V292.56H126.046C127.668 292.56 128.986 292.223 129.999 291.547C131.081 290.804 131.925 289.858 132.533 288.709C133.141 287.493 133.547 286.141 133.75 284.655L134.459 279.992H140.845L140.135 298.338H82.665ZM151.089 236.003C150.616 234.651 150.042 233.604 149.366 232.86C148.69 232.117 147.913 231.61 147.035 231.34C146.224 231.07 145.345 230.935 144.399 230.935H142.474V225.968H173.793V230.935H170.043C168.692 230.935 167.543 231.239 166.597 231.847C165.718 232.387 165.279 233.401 165.279 234.888C165.279 235.225 165.313 235.665 165.381 236.205C165.516 236.678 165.651 237.151 165.786 237.624C165.921 238.03 166.056 238.469 166.191 238.942L176.834 270.87C177.172 271.883 177.51 272.998 177.848 274.215C178.185 275.363 178.49 276.58 178.76 277.864C179.098 279.147 179.402 280.397 179.672 281.614C179.942 282.762 180.179 283.877 180.382 284.959C180.584 283.607 180.888 282.154 181.294 280.6C181.699 279.046 182.138 277.458 182.611 275.836C183.084 274.147 183.591 272.559 184.132 271.073L194.876 239.651C195.079 239.178 195.247 238.638 195.383 238.03C195.518 237.422 195.619 236.847 195.687 236.307C195.822 235.766 195.889 235.327 195.889 234.989C195.889 233.57 195.45 232.556 194.572 231.948C193.693 231.272 192.477 230.935 190.923 230.935H186.767V225.968H212.309V230.935H208.559C207.681 230.935 206.937 231.137 206.329 231.543C205.721 231.881 205.147 232.59 204.606 233.671C204.066 234.752 203.424 236.374 202.68 238.536L181.902 298.338H172.78L151.089 236.003ZM204.441 298.338V293.371H205.962C207.246 293.371 208.327 293.169 209.205 292.763C210.084 292.358 210.895 291.614 211.638 290.533C212.381 289.452 213.158 287.864 213.969 285.769L236.167 225.968H247.721L269.615 286.783C270.223 288.54 270.865 289.891 271.541 290.837C272.284 291.783 273.095 292.459 273.973 292.865C274.919 293.202 275.967 293.371 277.115 293.371H278.737V298.338H247.417V293.371H250.762C252.114 293.371 253.262 293.033 254.208 292.358C255.222 291.682 255.729 290.601 255.729 289.114C255.729 288.641 255.661 288.168 255.526 287.695C255.458 287.155 255.357 286.682 255.222 286.276C255.154 285.803 255.019 285.364 254.817 284.959L251.168 274.316H225.727L222.483 283.844C222.281 284.384 222.078 284.959 221.875 285.567C221.74 286.175 221.605 286.783 221.47 287.391C221.402 287.999 221.368 288.54 221.368 289.013C221.368 290.5 221.875 291.614 222.889 292.358C223.902 293.033 225.186 293.371 226.74 293.371H230.186V298.338H204.441ZM227.754 268.64H249.14L243.464 251.51C242.924 249.821 242.349 248.064 241.741 246.24C241.201 244.415 240.66 242.625 240.12 240.868C239.647 239.111 239.207 237.455 238.802 235.901C238.532 236.982 238.194 238.131 237.788 239.347C237.451 240.564 237.079 241.814 236.673 243.098C236.336 244.381 235.93 245.699 235.457 247.051C235.052 248.334 234.612 249.618 234.139 250.902L227.754 268.64ZM282.016 298.338V293.371H285.158C286.307 293.371 287.354 293.236 288.3 292.966C289.314 292.628 290.091 291.986 290.632 291.04C291.24 290.027 291.544 288.54 291.544 286.58V237.32C291.544 235.428 291.24 234.043 290.632 233.165C290.024 232.218 289.246 231.61 288.3 231.34C287.354 231.07 286.307 230.935 285.158 230.935H282.016V225.968H302.997L338.98 278.573V237.32C338.98 235.428 338.676 234.043 338.067 233.165C337.459 232.218 336.682 231.61 335.736 231.34C334.79 231.07 333.743 230.935 332.594 230.935H329.452V225.968H355.501V230.935H352.359C351.278 230.935 350.23 231.104 349.217 231.441C348.203 231.712 347.426 232.32 346.886 233.266C346.345 234.212 346.075 235.698 346.075 237.726V298.338H337.561L298.538 241.577V286.58C298.538 288.54 298.808 290.027 299.348 291.04C299.957 291.986 300.734 292.628 301.68 292.966C302.693 293.236 303.774 293.371 304.923 293.371H308.065V298.338H282.016ZM399.825 299.351C391.648 299.351 384.857 297.797 379.452 294.689C374.046 291.581 370.025 287.256 367.39 281.715C364.755 276.107 363.437 269.552 363.437 262.052C363.437 254.754 364.822 248.334 367.593 242.794C370.363 237.185 374.485 232.827 379.958 229.718C385.499 226.542 392.29 224.954 400.331 224.954C405.737 224.954 410.231 225.461 413.812 226.475C417.393 227.488 420.063 228.874 421.819 230.631C423.644 232.387 424.556 234.347 424.556 236.509C424.556 238.807 423.509 240.733 421.414 242.287C419.387 243.841 416.549 244.618 412.9 244.618C412.9 242.118 412.427 239.854 411.481 237.827C410.602 235.732 409.217 234.077 407.325 232.86C405.501 231.644 403.068 231.036 400.027 231.036C394.757 231.036 390.533 232.252 387.358 234.685C384.182 237.117 381.85 240.631 380.364 245.226C378.945 249.821 378.235 255.43 378.235 262.052C378.235 268.674 378.979 274.282 380.465 278.877C382.019 283.404 384.486 286.884 387.864 289.317C391.243 291.682 395.737 292.865 401.345 292.865C402.899 292.865 404.386 292.797 405.805 292.662C407.291 292.527 408.677 292.29 409.96 291.952V276.546C409.96 274.654 409.623 273.201 408.947 272.187C408.339 271.174 407.46 270.464 406.312 270.059C405.23 269.653 403.913 269.451 402.359 269.451H401.345V264.484H431.144V269.451H430.131C428.779 269.451 427.631 269.687 426.685 270.16C425.739 270.566 424.995 271.309 424.455 272.39C423.982 273.404 423.745 274.924 423.745 276.951V294.182C420.029 295.939 416.245 297.257 412.393 298.135C408.541 298.946 404.352 299.351 399.825 299.351ZM436.825 298.338V293.371H439.967C441.116 293.371 442.163 293.236 443.109 292.966C444.055 292.696 444.832 292.121 445.441 291.243C446.049 290.297 446.353 288.912 446.353 287.087V237.726C446.353 235.698 446.049 234.212 445.441 233.266C444.9 232.32 444.157 231.712 443.211 231.441C442.265 231.104 441.184 230.935 439.967 230.935H436.825V225.968H491.052L491.559 244.314H485.173L484.666 239.651C484.531 238.03 484.16 236.644 483.551 235.496C483.011 234.347 482.234 233.435 481.22 232.759C480.207 232.083 478.889 231.745 477.267 231.745H460.239V257.693H484.362V263.369H460.239V292.56H480.207C481.828 292.56 483.146 292.223 484.16 291.547C485.241 290.804 486.085 289.858 486.693 288.709C487.302 287.493 487.707 286.141 487.91 284.655L488.619 279.992H495.005L494.295 298.338H436.825ZM501.857 298.338V293.371H504.999C506.215 293.371 507.296 293.236 508.242 292.966C509.188 292.628 509.932 291.986 510.472 291.04C511.08 290.027 511.385 288.54 511.385 286.58V237.726C511.385 235.698 511.08 234.212 510.472 233.266C509.932 232.32 509.188 231.712 508.242 231.441C507.296 231.104 506.215 230.935 504.999 230.935H501.857V225.968H534.697V230.935H531.555C530.406 230.935 529.359 231.07 528.413 231.34C527.467 231.61 526.69 232.218 526.081 233.165C525.541 234.043 525.271 235.428 525.271 237.32V292.56H544.529C546.218 292.56 547.637 292.189 548.786 291.446C550.002 290.702 550.948 289.655 551.624 288.303C552.299 286.884 552.806 285.33 553.144 283.641L554.462 276.039H560.037L559.327 298.338H501.857ZM566.888 298.338V293.371H570.031C571.247 293.371 572.328 293.236 573.274 292.966C574.22 292.628 574.963 291.986 575.504 291.04C576.112 290.027 576.416 288.54 576.416 286.58V237.726C576.416 235.698 576.112 234.212 575.504 233.266C574.963 232.32 574.22 231.712 573.274 231.441C572.328 231.104 571.247 230.935 570.031 230.935H566.888V225.968H599.729V230.935H596.586C595.438 230.935 594.357 231.104 593.343 231.441C592.397 231.712 591.654 232.32 591.113 233.266C590.573 234.212 590.302 235.698 590.302 237.726V286.58C590.302 288.54 590.573 290.027 591.113 291.04C591.654 291.986 592.397 292.628 593.343 292.966C594.357 293.236 595.438 293.371 596.586 293.371H599.729V298.338H566.888ZM606.995 298.338V293.675L645.005 231.745H624.226C622.199 231.745 620.611 232.151 619.463 232.962C618.314 233.705 617.469 234.752 616.929 236.104C616.456 237.388 616.118 238.874 615.915 240.564L615.408 245.632H608.921L609.428 225.968H661.222V230.732L623.111 292.56H646.424C648.856 292.56 650.748 292.121 652.1 291.243C653.519 290.297 654.499 289.114 655.039 287.695C655.647 286.276 656.019 284.756 656.154 283.134L656.661 278.674H663.249L662.743 298.338H606.995ZM671.631 298.338V293.675L709.641 231.745H688.862C686.835 231.745 685.247 232.151 684.098 232.962C682.95 233.705 682.105 234.752 681.564 236.104C681.091 237.388 680.753 238.874 680.551 240.564L680.044 245.632H673.557L674.064 225.968H725.858V230.732L687.747 292.56H711.06C713.492 292.56 715.384 292.121 716.736 291.243C718.155 290.297 719.134 289.114 719.675 287.695C720.283 286.276 720.655 284.756 720.79 283.134L721.297 278.674H727.885L727.378 298.338H671.631ZM732.415 298.338V293.371H733.936C735.22 293.371 736.301 293.169 737.179 292.763C738.058 292.358 738.868 291.614 739.612 290.533C740.355 289.452 741.132 287.864 741.943 285.769L764.14 225.968H775.695L797.589 286.783C798.197 288.54 798.839 289.891 799.514 290.837C800.258 291.783 801.069 292.459 801.947 292.865C802.893 293.202 803.94 293.371 805.089 293.371H806.711V298.338H775.391V293.371H778.736C780.087 293.371 781.236 293.033 782.182 292.358C783.196 291.682 783.703 290.601 783.703 289.114C783.703 288.641 783.635 288.168 783.5 287.695C783.432 287.155 783.331 286.682 783.196 286.276C783.128 285.803 782.993 285.364 782.79 284.959L779.141 274.316H753.701L750.457 283.844C750.254 284.384 750.052 284.959 749.849 285.567C749.714 286.175 749.579 286.783 749.443 287.391C749.376 287.999 749.342 288.54 749.342 289.013C749.342 290.5 749.849 291.614 750.863 292.358C751.876 293.033 753.16 293.371 754.714 293.371H758.16V298.338H732.415ZM755.728 268.64H777.114L771.438 251.51C770.898 249.821 770.323 248.064 769.715 246.24C769.175 244.415 768.634 242.625 768.093 240.868C767.62 239.111 767.181 237.455 766.776 235.901C766.505 236.982 766.168 238.131 765.762 239.347C765.424 240.564 765.053 241.814 764.647 243.098C764.309 244.381 763.904 245.699 763.431 247.051C763.026 248.334 762.586 249.618 762.113 250.902L755.728 268.64ZM810.801 298.338V293.675L848.81 231.745H828.032C826.005 231.745 824.417 232.151 823.268 232.962C822.119 233.705 821.275 234.752 820.734 236.104C820.261 237.388 819.923 238.874 819.72 240.564L819.214 245.632H812.727L813.234 225.968H865.028V230.732L826.917 292.56H850.229C852.662 292.56 854.554 292.121 855.905 291.243C857.324 290.297 858.304 289.114 858.845 287.695C859.453 286.276 859.825 284.756 859.96 283.134L860.466 278.674H867.055L866.548 298.338H810.801ZM874.626 298.338V293.371H877.768C878.984 293.371 880.065 293.236 881.011 292.966C881.957 292.628 882.701 291.986 883.241 291.04C883.849 290.027 884.153 288.54 884.153 286.58V237.726C884.153 235.698 883.849 234.212 883.241 233.266C882.701 232.32 881.957 231.712 881.011 231.441C880.065 231.104 878.984 230.935 877.768 230.935H874.626V225.968H907.466V230.935H904.324C903.175 230.935 902.094 231.104 901.08 231.441C900.134 231.712 899.391 232.32 898.85 233.266C898.31 234.212 898.039 235.698 898.039 237.726V286.58C898.039 288.54 898.31 290.027 898.85 291.04C899.391 291.986 900.134 292.628 901.08 292.966C902.094 293.236 903.175 293.371 904.324 293.371H907.466V298.338H874.626ZM949.701 299.351C942.201 299.351 935.984 297.797 931.051 294.689C926.119 291.581 922.402 287.222 919.902 281.614C917.469 276.005 916.253 269.451 916.253 261.95C916.253 254.45 917.469 247.929 919.902 242.388C922.402 236.847 926.119 232.556 931.051 229.516C936.052 226.407 942.302 224.853 949.803 224.853C956.965 224.853 963.013 226.407 967.946 229.516C972.879 232.556 976.629 236.881 979.197 242.489C981.764 248.03 983.048 254.551 983.048 262.052C983.048 269.552 981.764 276.107 979.197 281.715C976.629 287.256 972.845 291.581 967.844 294.689C962.912 297.797 956.864 299.351 949.701 299.351ZM949.701 293.169C953.148 293.169 956.019 292.493 958.317 291.141C960.682 289.722 962.574 287.695 963.993 285.06C965.479 282.357 966.561 279.08 967.236 275.228C967.912 271.377 968.25 266.984 968.25 262.052C968.25 257.186 967.912 252.828 967.236 248.976C966.561 245.125 965.513 241.881 964.094 239.246C962.675 236.543 960.783 234.516 958.418 233.165C956.053 231.745 953.181 231.036 949.803 231.036C946.424 231.036 943.518 231.745 941.086 233.165C938.721 234.516 936.795 236.543 935.308 239.246C933.889 241.881 932.842 245.125 932.166 248.976C931.491 252.828 931.153 257.186 931.153 262.052C931.153 266.984 931.491 271.377 932.166 275.228C932.842 279.08 933.889 282.357 935.308 285.06C936.795 287.695 938.721 289.722 941.086 291.141C943.518 292.493 946.39 293.169 949.701 293.169ZM991.92 298.338V293.371H995.062C996.211 293.371 997.258 293.236 998.204 292.966C999.218 292.628 999.995 291.986 1000.54 291.04C1001.14 290.027 1001.45 288.54 1001.45 286.58V237.32C1001.45 235.428 1001.14 234.043 1000.54 233.165C999.928 232.218 999.15 231.61 998.204 231.34C997.258 231.07 996.211 230.935 995.062 230.935H991.92V225.968H1012.9L1048.88 278.573V237.32C1048.88 235.428 1048.58 234.043 1047.97 233.165C1047.36 232.218 1046.59 231.61 1045.64 231.34C1044.69 231.07 1043.65 230.935 1042.5 230.935H1039.36V225.968H1065.4V230.935H1062.26C1061.18 230.935 1060.13 231.104 1059.12 231.441C1058.11 231.712 1057.33 232.32 1056.79 233.266C1056.25 234.212 1055.98 235.698 1055.98 237.726V298.338H1047.46L1008.44 241.577V286.58C1008.44 288.54 1008.71 290.027 1009.25 291.04C1009.86 291.986 1010.64 292.628 1011.58 292.966C1012.6 293.236 1013.68 293.371 1014.83 293.371H1017.97V298.338H991.92ZM1070.91 298.338V293.371H1074.05C1075.2 293.371 1076.25 293.236 1077.19 292.966C1078.14 292.696 1078.92 292.121 1079.52 291.243C1080.13 290.297 1080.44 288.912 1080.44 287.087V237.726C1080.44 235.698 1080.13 234.212 1079.52 233.266C1078.98 232.32 1078.24 231.712 1077.29 231.441C1076.35 231.104 1075.27 230.935 1074.05 230.935H1070.91V225.968H1125.14L1125.64 244.314H1119.26L1118.75 239.651C1118.61 238.03 1118.24 236.644 1117.63 235.496C1117.09 234.347 1116.32 233.435 1115.3 232.759C1114.29 232.083 1112.97 231.745 1111.35 231.745H1094.32V257.693H1118.45V263.369H1094.32V292.56H1114.29C1115.91 292.56 1117.23 292.223 1118.24 291.547C1119.32 290.804 1120.17 289.858 1120.78 288.709C1121.38 287.493 1121.79 286.141 1121.99 284.655L1122.7 279.992H1129.09L1128.38 298.338H1070.91Z" fill="#DA995C"/>
<path d="M650.535 136.138C649.741 136.192 649.039 135.986 648.428 135.52C647.889 135.049 647.631 134.451 647.654 133.725C647.598 130.758 647.945 127.872 648.697 125.068C649.521 122.258 650.741 118.879 652.357 114.929C652.539 114.409 652.69 113.964 652.81 113.594C652.997 113.146 653.152 112.774 653.277 112.475C654.634 108.978 656.037 105.622 657.485 102.408C658.934 99.1939 660.387 96.052 661.845 92.9823L663.177 90.1748C664.697 86.9559 666.043 84.3648 667.214 82.4014C668.38 80.3659 669.583 78.8714 670.823 77.9178C672.413 76.7955 673.389 76.2221 673.749 76.1976C674.326 76.1585 674.938 76.6243 675.583 77.5949C675.993 78.2917 675.391 80.1077 673.779 83.043C672.939 84.5491 671.871 86.433 670.576 88.6947C669.352 90.9514 667.859 93.5163 666.098 96.3892C665.772 96.9185 665.22 97.8617 664.442 99.2187C663.732 100.499 662.76 102.195 661.527 104.307C660.293 106.42 659.228 108.34 658.331 110.067C657.429 111.723 656.695 113.185 656.129 114.456C654.992 116.924 653.939 119.567 652.971 122.387C651.998 125.134 651.563 127.264 651.666 128.779C651.759 130.149 652.346 130.798 653.428 130.725C655.159 130.607 657.836 128.94 661.458 125.724C661.896 125.766 662.127 125.968 662.151 126.329C662.171 126.617 661.844 127.147 661.172 127.917C660.567 128.61 659.784 129.351 658.823 130.141C657.939 130.998 656.882 131.976 655.653 133.073L654.01 134.489C652.919 135.505 651.761 136.055 650.535 136.138ZM683.711 129.648C683.567 129.658 683.42 129.632 683.271 129.57C683.127 129.579 682.98 129.553 682.831 129.491C681.787 129.054 681.089 128.377 680.737 127.459C680.385 126.541 680.232 125.356 680.278 123.903C680.384 123.317 680.459 122.297 680.506 120.845C680.624 119.388 680.798 118.216 681.028 117.331L675.87 123.007L673.039 126.134C671.089 128.367 669.429 129.53 668.059 129.623C667.482 129.663 666.998 129.478 666.608 129.07C665.905 128.32 665.515 127.369 665.436 126.215C665.334 124.7 665.62 123.05 666.296 121.265C666.972 119.48 667.797 117.758 668.771 116.098C669.741 114.365 670.622 112.929 671.414 111.788C673.396 108.973 675.346 106.739 677.263 105.088C679.252 103.431 681.364 102.527 683.6 102.375C684.826 102.292 686.031 102.428 687.215 102.782C688.47 103.132 689.637 103.777 690.715 104.719L690.831 104.819C690.846 105.036 690.68 105.264 690.334 105.505C690.199 105.659 690.063 105.777 689.923 105.859C689.856 105.936 689.789 106.013 689.721 106.09C688.915 107.014 688.039 108.523 687.094 110.616C686.149 112.709 685.356 114.9 684.714 117.19C684.067 119.408 683.798 121.31 683.906 122.897C684.003 124.339 684.43 125.288 685.186 125.744C685.561 125.936 685.965 126.018 686.398 125.988C687.335 125.925 688.595 125.259 690.175 123.993C690.242 123.916 690.379 123.798 690.586 123.639C690.86 123.403 691.237 123.088 691.717 122.693C692.265 122.221 692.719 121.973 693.08 121.948C693.44 121.924 693.63 122.056 693.65 122.344C693.679 122.777 693.425 123.301 692.887 123.918C692.479 124.308 692.001 124.739 691.453 125.21C690.978 125.677 690.394 126.152 689.702 126.634C688.674 127.5 687.598 128.189 686.473 128.7C685.353 129.283 684.433 129.599 683.711 129.648ZM671.016 123.554C672.531 123.451 675.192 121.024 679 116.273C679.999 114.974 680.894 113.754 681.686 112.613C682.474 111.4 683.191 110.229 683.839 109.098C684.995 106.918 685.33 105.446 684.844 104.682C684.598 104.264 684.151 104.077 683.501 104.121C682.708 104.175 681.655 104.681 680.344 105.639C679.027 106.526 677.692 107.667 676.337 109.063C675.055 110.454 673.881 111.838 672.815 113.215C672.09 114.279 671.392 115.739 670.721 117.596C670.05 119.453 669.753 120.958 669.832 122.112C669.9 123.122 670.295 123.603 671.016 123.554ZM717.58 126.155C716.282 126.243 715.599 125.783 715.53 124.773C715.486 124.124 715.646 123.279 716.011 122.24C716.447 121.196 716.886 120.188 717.327 119.216C718.531 116.671 719.632 114.205 720.629 111.819C721.627 109.433 722.578 106.905 723.484 104.235C723.911 103.046 724.629 102.418 725.639 102.349C726.721 102.276 727.089 102.903 726.745 104.231C726.385 105.342 726.018 106.345 725.644 107.24C723.904 111.488 723.082 114.334 723.18 115.776C723.224 116.425 723.468 116.807 723.91 116.922C724.866 116.06 725.584 115.432 726.065 115.037C726.54 114.57 726.812 114.298 726.879 114.221C727.835 113.359 728.892 112.382 730.049 111.289C731.274 110.119 732.597 108.797 734.019 107.324C736.252 104.999 738.163 103.782 739.749 103.675C741.697 103.543 742.646 105.253 742.597 108.807C742.618 110.182 742.709 111.517 742.869 112.81C742.961 113.094 743.026 113.524 743.065 114.101C743.099 114.606 743.141 115.219 743.19 115.94C743.239 116.662 743.696 116.993 744.562 116.934C745.571 116.866 746.489 116.514 747.316 115.878L749.586 114.094L751.863 112.417C752.003 112.336 752.253 112.282 752.613 112.258C753.046 112.229 753.068 112.553 752.679 113.232C748.517 119.166 744.957 122.233 742 122.434C741.423 122.473 740.839 122.404 740.247 122.227C739.727 122.044 739.325 121.456 739.04 120.461C738.751 119.393 738.528 118.249 738.373 117.028C738.29 115.802 738.226 114.864 738.182 114.215L738.048 110.637C737.945 109.123 737.497 108.392 736.704 108.446C734.828 108.573 730.474 112.745 723.641 120.962C723.113 121.722 722.277 122.757 721.134 124.067C719.991 125.376 718.807 126.072 717.58 126.155ZM757.173 123.578C754.361 123.769 752.868 122.602 752.697 120.078C752.687 119.933 752.67 119.681 752.646 119.32C752.693 118.955 752.736 118.517 752.774 118.007C753.295 115.001 754.544 112.054 756.522 109.167C758.567 106.202 760.961 103.576 763.704 101.289C764.728 100.35 766.429 99.7998 768.809 99.6383C770.18 99.5453 771.385 99.681 772.424 100.045C773.53 100.332 774.327 100.858 774.813 101.622C775.295 102.314 775.567 103.129 775.631 104.066C775.641 104.211 775.619 104.43 775.567 104.723C775.586 105.011 775.572 105.338 775.525 105.704C775.664 105.622 775.878 105.571 776.167 105.552C776.527 105.527 776.958 105.462 777.457 105.356C777.957 105.249 778.421 105.145 778.849 105.044C779.349 104.937 779.852 104.867 780.357 104.833L780.789 104.803C781.583 104.75 781.677 105.069 781.072 105.762C780.534 106.379 779.765 106.793 778.765 107.006L775.116 107.688C774.532 109.757 773.406 111.862 771.74 114.004C770.146 116.141 768.319 118.04 766.258 119.701C764.264 121.286 762.344 122.358 760.498 122.918C759.436 123.28 758.327 123.5 757.173 123.578ZM769.928 106.518C770.361 106.489 770.866 106.455 771.443 106.416C772.087 106.3 772.804 106.178 773.592 106.053C773.654 105.903 773.668 105.576 773.634 105.071C773.546 103.773 772.944 102.908 771.828 102.477C771.226 102.155 770.493 102.024 769.627 102.083C768.545 102.156 767.452 102.592 766.347 103.392C765.309 104.115 764.214 105.058 763.061 106.223C764.61 106.626 766.899 106.724 769.928 106.518ZM760.162 119.571C760.884 119.522 761.871 119.129 763.126 118.392C764.447 117.578 765.79 116.545 767.154 115.293C768.518 114.041 769.733 112.727 770.799 111.35C771.136 110.965 771.467 110.508 771.793 109.979C772.115 109.377 772.472 108.773 772.866 108.167L770.291 108.668C766.291 109.519 762.707 110.088 759.538 110.375C758.128 113.079 757.301 115.309 757.058 117.065C757.049 118.007 757.348 118.675 757.954 119.069C758.561 119.463 759.297 119.63 760.162 119.571ZM776.542 124.981C775.388 125.06 774.371 125.02 773.491 124.862C772.683 124.7 772.266 124.438 772.242 124.078C772.203 123.501 772.758 123.137 773.907 122.986C774.984 122.841 775.698 122.684 776.049 122.515C776.688 122.327 777.438 122.167 778.299 122.036C779.082 121.838 779.724 121.686 780.224 121.58C783.618 120.335 785.243 118.667 785.102 116.575C785.004 115.133 784.122 113.345 782.455 111.212C781.425 109.905 780.853 108.422 780.741 106.763C780.604 104.744 781.082 102.719 782.176 100.688C783.342 98.6524 784.814 96.8498 786.592 95.2801C788.436 93.6333 790.315 92.4914 792.228 91.8544C793.079 91.5793 793.973 91.41 794.911 91.3464C796.426 91.2436 797.532 91.5309 798.23 92.2081C798.692 92.6115 798.972 93.5345 799.07 94.977C799.144 96.0589 799.039 97.1891 798.757 98.3676C798.469 99.474 798.026 100.41 797.426 101.175C797.089 101.56 796.813 101.76 796.597 101.775C796.236 101.799 796.021 101.307 795.953 100.297L795.914 98.1256C795.947 97.5437 795.949 97.0364 795.92 96.6036C795.963 96.166 795.974 95.8029 795.955 95.5144C795.871 94.2883 795.57 93.5841 795.051 93.402C794.464 93.2969 794.062 93.2517 793.846 93.2663C792.331 93.3691 790.755 94.1644 789.117 95.6522C787.479 97.14 786.18 98.8222 785.22 100.699C784.831 101.377 784.669 102.185 784.732 103.123C784.811 104.277 785.192 105.628 785.877 107.176C786.629 108.646 787.173 109.732 787.511 110.434C788.34 111.972 788.974 113.306 789.413 114.435C789.924 115.56 790.209 116.555 790.267 117.42C790.297 117.853 790.283 118.18 790.225 118.401C790.576 118.233 791.427 117.958 792.778 117.576C793.984 117.205 795.02 116.989 795.886 116.931C796.391 116.896 796.65 116.987 796.665 117.204C796.67 117.276 796.471 117.543 796.067 118.005C795.866 118.236 795.205 118.643 794.085 119.226C793.033 119.733 791.766 120.29 790.286 120.897C788.877 121.5 787.467 122.067 786.054 122.597C784.64 123.128 783.436 123.536 782.441 123.82C780.744 124.443 778.778 124.83 776.542 124.981ZM801.625 128.823C801.264 128.847 801.062 128.535 801.018 127.886C801.008 127.742 800.994 127.525 800.974 127.237C801.032 127.016 801.087 126.758 801.139 126.465L804.999 114.465L809.592 100.458C808.721 100.445 807.461 100.567 805.812 100.824C804.158 101.008 802.762 101.248 801.622 101.543C801.194 101.644 800.839 101.741 800.555 101.832C800.339 101.847 800.158 101.859 800.014 101.869C799.437 101.908 799.023 101.683 798.773 101.192C798.815 100.755 799.185 100.331 799.882 99.9216C800.233 99.7529 800.658 99.6153 801.158 99.5089C801.653 99.3304 802.257 99.1446 802.968 98.9514C803.752 98.7533 804.43 98.5987 805.002 98.4874C805.646 98.3712 806.11 98.2673 806.393 98.1756C806.749 98.079 807.105 97.9824 807.461 97.8858C807.816 97.7892 808.244 97.6878 808.744 97.5814C809.172 97.4799 809.636 97.376 810.136 97.2696C810.636 97.1632 811.17 97.0183 811.737 96.8349C812.26 96.0024 813.03 94.5372 814.047 92.4394C815.064 90.3415 816.362 87.5726 817.94 84.1324C819.201 81.3659 820.214 79.1959 820.976 77.6225C821.806 75.9721 822.385 74.8823 822.711 74.3529C823.301 73.4434 824.029 72.9592 824.895 72.9005C825.328 72.8712 825.556 73.0368 825.581 73.3974C825.586 73.4696 825.437 73.9506 825.135 74.8406C824.751 75.5912 824.121 76.9745 823.243 78.9904C822.365 81.0063 821.428 83.2075 820.43 85.5938C819.433 87.9801 818.534 90.2149 817.733 92.298C816.932 94.3812 816.384 95.9038 816.087 96.8659C816.442 96.7693 816.836 96.7064 817.269 96.677C817.774 96.6428 818.387 96.6012 819.108 96.5522C819.902 96.4984 820.626 96.4856 821.28 96.5137C822.001 96.4647 822.616 96.4592 823.126 96.4971C824.151 96.645 824.675 96.8992 824.7 97.2598C824.709 97.4041 824.402 97.6786 823.777 98.0832C823.426 98.2519 822.751 98.4427 821.751 98.6554C820.751 98.8682 819.426 99.103 817.777 99.3597C817.345 99.3891 816.878 99.457 816.378 99.5633C815.873 99.5976 815.335 99.6704 814.763 99.7816C812.839 103.463 810.28 109.542 807.087 118.018C805.903 120.852 805.001 123.051 804.383 124.614C803.764 126.178 803.393 127.109 803.268 127.407C802.678 128.317 802.13 128.789 801.625 128.823ZM821.885 119.623C820.948 119.687 820.422 118.889 820.31 117.23C820.217 115.86 820.451 114.503 821.012 113.161C822.456 109.875 823.758 106.635 824.918 103.44C825.728 101.501 826.471 99.6395 827.147 97.8546C827.895 96.0649 828.581 94.4243 829.204 92.9328C829.608 92.4707 830.026 92.2249 830.459 92.1956C831.396 92.132 831.714 92.5452 831.412 93.4352C831.302 93.9498 831.127 94.5776 830.888 95.3184C830.716 95.9822 830.481 96.7952 830.184 97.7573C829.235 100.865 828.694 103.039 828.561 104.28C830.458 102.34 832.402 100.541 834.39 98.8849C836.447 97.1513 838.378 95.716 840.185 94.5791C841.992 93.4421 843.544 92.8295 844.843 92.7415C845.997 92.6632 846.605 93.0929 846.669 94.0305C846.723 94.8239 846.421 95.7139 845.763 96.7005C845.101 97.6149 844.409 98.0966 843.687 98.1455C843.327 98.17 843.031 98.0814 842.8 97.8797C842.579 97.8222 842.143 97.8155 841.494 97.8596C839.186 98.0161 836.846 99.298 834.473 101.705C831.956 104.122 829.723 106.991 827.775 110.311C825.821 113.559 824.418 116.372 823.565 118.748C823.094 119.287 822.534 119.579 821.885 119.623ZM860.365 117.665C860.221 117.675 860.074 117.648 859.925 117.586C859.781 117.596 859.634 117.57 859.485 117.507C858.441 117.071 857.743 116.394 857.391 115.475C857.039 114.557 856.886 113.372 856.932 111.92C857.038 111.333 857.113 110.314 857.16 108.861C857.278 107.404 857.452 106.233 857.682 105.348L852.524 111.023L849.693 114.15C847.743 116.384 846.083 117.547 844.713 117.64C844.136 117.679 843.652 117.494 843.262 117.086C842.559 116.337 842.169 115.385 842.09 114.231C841.988 112.716 842.274 111.067 842.95 109.282C843.626 107.497 844.451 105.774 845.425 104.114C846.395 102.382 847.276 100.945 848.068 99.8048C850.05 96.9893 852 94.7557 853.917 93.1041C855.906 91.4475 858.018 90.5434 860.254 90.3917C861.481 90.3086 862.685 90.4442 863.869 90.7987C865.124 91.1483 866.291 91.7937 867.369 92.735L867.485 92.8358C867.5 93.0522 867.334 93.2808 866.988 93.5217C866.853 93.6757 866.717 93.7937 866.577 93.8756C866.51 93.9526 866.443 94.0296 866.375 94.1066C865.569 95.0309 864.693 96.5395 863.748 98.6324C862.803 100.725 862.01 102.917 861.368 105.206C860.721 107.424 860.452 109.326 860.56 110.913C860.657 112.356 861.084 113.305 861.84 113.761C862.215 113.953 862.619 114.034 863.052 114.005C863.989 113.941 865.249 113.276 866.829 112.009C866.896 111.932 867.033 111.814 867.24 111.655C867.514 111.419 867.891 111.104 868.371 110.709C868.919 110.237 869.373 109.989 869.734 109.965C870.094 109.94 870.284 110.072 870.304 110.361C870.333 110.793 870.079 111.318 869.541 111.934C869.133 112.324 868.655 112.755 868.107 113.227C867.632 113.694 867.048 114.168 866.356 114.65C865.328 115.517 864.252 116.206 863.127 116.717C862.007 117.3 861.087 117.616 860.365 117.665ZM847.67 111.57C849.185 111.467 851.846 109.041 855.654 104.29C856.653 102.99 857.548 101.77 858.34 100.63C859.128 99.4168 859.845 98.245 860.493 97.1142C861.649 94.9345 861.984 93.4626 861.498 92.6985C861.252 92.2804 860.805 92.0934 860.155 92.1375C859.362 92.1913 858.309 92.6974 856.998 93.6559C855.681 94.5423 854.346 95.6835 852.991 97.0797C851.709 98.4709 850.535 99.8548 849.469 101.231C848.744 102.295 848.046 103.755 847.375 105.612C846.704 107.469 846.407 108.975 846.486 110.129C846.554 111.139 846.949 111.619 847.67 111.57Z" fill="#254C70"/>
<path d="M37.421 263.393C35.9409 263.493 34.8052 262.827 34.0141 261.393C33.9087 261.301 33.8393 261.009 33.8058 260.515C33.7723 260.022 33.942 258.871 34.3149 257.061C34.4788 256.554 34.5934 256.051 34.6586 255.551C34.8225 255.044 34.9864 254.537 35.1502 254.03C35.3141 253.523 35.4747 252.967 35.6319 252.362C35.7823 251.658 35.9328 250.954 36.0833 250.249C36.3776 248.743 36.4913 247.496 36.4244 246.509C36.3307 245.127 35.8398 244.467 34.9517 244.527C34.6556 244.547 34.1296 244.831 33.3737 245.378C32.1578 246.451 30.8399 247.483 29.42 248.471C28.0988 249.453 26.6755 250.392 25.1502 251.289L20.5844 254.126L17.5965 256.113C17.3072 256.232 16.6466 256.723 15.6147 257.586C14.668 258.245 13.652 258.611 12.5666 258.685C11.2838 258.772 9.80607 258.178 8.13351 256.904C6.86905 255.8 6.19331 254.607 6.10629 253.324C6.03266 252.238 6.47163 250.672 7.42321 248.625C8.12561 247.289 9.35065 245.619 11.0983 243.617C11.8342 242.774 12.4288 242.04 12.882 241.415C13.4272 240.684 13.8838 240.107 14.2517 239.686C18.0213 233.879 24.104 228.559 32.4998 223.727C34.8797 222.277 37.0564 221.485 39.03 221.351C41.2009 221.204 42.988 221.975 44.3913 223.664C44.903 222.44 45.7267 220.698 46.8622 218.44C48.0898 216.077 49.4026 213.51 50.8007 210.738C52.2975 207.96 53.7056 205.337 55.0251 202.868C56.4433 200.393 57.5529 198.484 58.354 197.141C60.7706 193.309 62.7541 190.399 64.3044 188.41C65.8615 186.52 67.3307 185.528 68.7122 185.434C69.2056 185.401 69.8637 185.604 70.6866 186.044C71.4175 186.589 71.8165 187.355 71.8834 188.342C71.9838 189.822 71.4596 191.592 70.3106 193.653C69.1617 195.714 67.5495 198.252 65.474 201.267C65.2968 201.577 65.0275 201.992 64.6663 202.512C64.2983 202.933 63.8911 203.506 63.4446 204.23C62.4662 205.883 61.4452 207.637 60.3816 209.494C59.3112 211.252 58.1422 213.016 56.8745 214.787C55.075 217.487 53.1936 220.44 51.2302 223.646C49.2601 226.754 47.4481 229.999 45.7941 233.383C44.3174 236.457 43.0941 239.613 42.1241 242.851C41.1475 245.99 40.3716 249.166 39.7964 252.377C39.7446 253.074 39.6827 253.624 39.6108 254.025C39.6443 254.518 39.6677 254.864 39.6811 255.061L39.9797 257.271C40.0985 257.561 40.1947 258.248 40.2683 259.334C40.4424 261.899 39.4933 263.252 37.421 263.393ZM16.2793 252.039C17.3647 251.965 18.3381 251.701 19.1994 251.246C22.8622 249.709 26.3041 247.84 29.5253 245.639C32.7464 243.437 36.1181 240.532 39.6402 236.923C40.0399 235.508 40.5316 233.988 41.1152 232.362C41.6988 230.736 42.3218 228.959 42.984 227.031C41.6325 224.644 39.822 223.528 37.5524 223.682C36.0723 223.782 34.5269 224.383 32.9163 225.483C31.3057 226.584 29.5212 228.043 27.5628 229.861C25.6963 231.574 23.7939 233.487 21.8556 235.601C20.0159 237.709 18.4196 239.75 17.0666 241.725C15.7069 243.602 14.7712 245.153 14.2595 246.377C13.7344 247.404 13.5153 248.559 13.6023 249.841C13.7094 251.42 14.6017 252.153 16.2793 252.039ZM66.4776 217.705C65.1948 217.792 64.5333 217.539 64.4931 216.947C64.4596 216.454 64.7581 215.74 65.3886 214.805C66.1111 213.764 66.9423 212.865 67.8822 212.108C69.9594 210.579 71.5566 209.281 72.6738 208.214C73.8897 207.14 75.3054 205.359 76.9209 202.87C77.033 203.061 77.1091 203.452 77.1493 204.044C77.2363 205.327 76.8007 206.942 75.8424 208.891C74.9761 210.734 73.9518 212.439 72.7694 214.006C71.587 215.574 70.5158 216.588 69.5558 217.05C68.6878 217.406 67.6617 217.624 66.4776 217.705ZM55.7641 254.862C54.9747 254.916 54.2145 254.67 53.4836 254.125C52.7527 253.58 52.3538 252.814 52.2869 251.827C52.1463 249.755 53.3194 245.858 55.8062 240.138L57.2135 236.772C57.3974 236.561 57.6107 236.051 57.8531 235.241C58.1943 234.425 58.6667 233.352 59.2705 232.022C59.8675 230.594 60.3265 229.324 60.6476 228.212C60.9687 227.099 61.1944 226.043 61.3249 225.043C61.3182 224.944 61.5021 224.734 61.8768 224.411C62.2514 224.088 62.6294 223.814 63.0107 223.59L63.8887 223.382C64.6782 223.329 65.3296 223.433 65.8431 223.696C66.4552 223.951 66.6794 224.333 66.5155 224.84C65.9251 226.367 65.4201 227.69 65.0003 228.808C64.5806 229.927 64.2495 230.892 64.007 231.701L63.859 231.711C62.9409 234.252 62.1641 236.684 61.5286 239.007C60.9851 241.224 60.8297 243.317 61.0622 245.284L61.4814 249.27C61.4496 250.264 61.1611 251.126 60.6159 251.857C60.2413 252.179 59.722 252.562 59.058 253.003C58.4008 253.543 57.5461 254.097 56.4942 254.664C56.4022 254.769 56.1588 254.836 55.7641 254.862Z" fill="#254C70"/>
<path d="M129.663 441.056C127.251 441.508 125.251 441.102 123.662 439.84C122.192 438.659 121.241 436.912 120.808 434.601C120.036 430.48 120.791 426.178 123.071 421.693C124.9 418.126 127.036 414.813 129.48 411.755C132.005 408.577 134.534 405.97 137.065 403.936C139.679 401.782 141.99 400.516 144 400.14C145.91 399.782 147.317 400.351 148.221 401.846C148.774 402.575 149.153 403.492 149.361 404.597C149.737 406.607 149.172 407.753 147.664 408.036C146.961 408.168 146.251 407.989 145.535 407.499C144.901 406.889 144.471 405.981 144.245 404.775C143.045 404.48 141.585 405.014 139.863 406.376C138.224 407.62 136.568 409.334 134.897 411.52C133.207 413.605 131.646 415.822 130.214 418.171C128.762 420.419 127.666 422.341 126.924 423.936C125.586 426.788 125.199 429.721 125.764 432.736C126.028 434.143 126.596 435.233 127.469 436.006C128.342 436.778 129.482 437.033 130.889 436.769C132.195 436.525 133.678 435.831 135.336 434.688C136.511 433.74 137.595 432.86 138.587 432.05C139.68 431.221 140.682 430.462 141.593 429.771C147.165 425.086 150.353 422.668 151.157 422.518C151.459 422.461 151.638 422.584 151.694 422.885C151.751 423.187 151.575 423.636 151.166 424.232C150.331 425.325 148.958 426.883 147.048 428.905C145.139 430.927 143.059 432.877 140.81 434.755C138.561 436.632 136.448 438.121 134.469 439.22C132.672 440.18 131.07 440.792 129.663 441.056ZM162.51 434.435C158.59 435.169 156.301 433.777 155.642 430.26C155.604 430.059 155.538 429.707 155.444 429.204C155.451 428.683 155.438 428.061 155.407 427.339C155.64 423.03 156.906 418.684 159.206 414.3C161.587 409.797 164.515 405.711 167.989 402.044C169.27 400.555 171.569 399.501 174.886 398.879C176.796 398.521 178.51 398.512 180.03 398.852C181.632 399.072 182.838 399.678 183.648 400.671C184.439 401.563 184.957 402.662 185.202 403.969C185.24 404.17 185.246 404.48 185.221 404.901C185.296 405.303 185.33 405.765 185.324 406.286C185.506 406.148 185.798 406.041 186.2 405.966C186.703 405.872 187.296 405.709 187.981 405.476C188.666 405.244 189.3 405.021 189.884 404.808C190.569 404.576 191.263 404.394 191.967 404.262L192.57 404.149C193.675 403.942 193.86 404.375 193.125 405.449C192.472 406.404 191.461 407.113 190.091 407.578L185.079 409.141C184.601 412.143 183.369 415.287 181.384 418.572C179.499 421.837 177.247 424.808 174.627 427.483C172.089 430.039 169.57 431.864 167.07 432.956C165.638 433.641 164.118 434.133 162.51 434.435ZM177.598 408.358C178.201 408.245 178.904 408.113 179.708 407.962C180.594 407.693 181.58 407.404 182.667 407.096C182.73 406.876 182.695 406.415 182.564 405.711C182.225 403.902 181.236 402.787 179.596 402.366C178.698 402.014 177.646 401.951 176.44 402.177C174.933 402.459 173.469 403.254 172.049 404.56C170.711 405.747 169.329 407.254 167.903 409.082C170.145 409.39 173.377 409.149 177.598 408.358ZM166.044 428.311C167.049 428.123 168.371 427.407 170.011 426.164C171.732 424.801 173.447 423.127 175.156 421.143C176.864 419.158 178.353 417.111 179.623 415C180.031 414.404 180.42 413.707 180.791 412.909C181.143 412.011 181.545 411.103 181.998 410.186L178.464 411.316C172.987 413.175 168.047 414.568 163.643 415.497C162.11 419.529 161.318 422.799 161.267 425.305C161.412 426.63 161.942 427.519 162.859 427.971C163.776 428.424 164.838 428.537 166.044 428.311ZM193.887 428.401C192.078 428.739 191.042 428.205 190.778 426.798C190.609 425.894 190.694 424.682 191.033 423.162C191.473 421.623 191.923 420.134 192.381 418.696C193.651 414.921 194.788 411.275 195.794 407.758C196.799 404.241 197.717 400.532 198.547 396.631C198.949 394.892 199.853 393.89 201.26 393.626C202.768 393.344 203.39 394.164 203.126 396.086C202.805 397.706 202.456 399.176 202.079 400.495C200.338 406.751 199.656 410.883 200.033 412.893C200.202 413.798 200.607 414.294 201.248 414.382C202.448 413.013 203.352 412.011 203.962 411.377C204.552 410.642 204.888 410.215 204.97 410.096C206.17 408.727 207.492 407.179 208.937 405.452C210.464 403.605 212.104 401.53 213.856 399.225C216.608 395.588 219.089 393.563 221.3 393.149C224.014 392.641 225.631 394.886 226.152 399.886C226.409 401.815 226.757 403.674 227.196 405.464C227.372 405.847 227.535 406.441 227.686 407.245C227.818 407.948 227.978 408.803 228.166 409.808C228.354 410.813 229.052 411.202 230.258 410.976C231.665 410.713 232.896 410.066 233.951 409.036L236.844 406.153L239.765 403.422C239.947 403.283 240.29 403.167 240.792 403.073C241.395 402.96 241.48 403.412 241.047 404.43C236.183 413.455 231.692 418.354 227.571 419.126C226.767 419.276 225.935 419.276 225.074 419.125C224.314 418.955 223.652 418.195 223.087 416.845C222.503 415.394 222.001 413.823 221.58 412.134C221.26 410.425 221.015 409.119 220.846 408.214L220.065 403.211C219.669 401.101 218.919 400.149 217.813 400.356C215.2 400.845 209.775 407.427 201.539 420.101C200.923 421.257 199.921 422.849 198.533 424.878C197.144 426.906 195.596 428.08 193.887 428.401ZM272.287 421.516C271.182 421.723 270.161 421.55 269.225 420.997C268.39 420.425 267.928 419.627 267.841 418.604C267.27 414.445 267.28 410.334 267.871 406.271C268.562 402.188 269.716 397.239 271.331 391.423C271.501 390.663 271.639 390.012 271.746 389.472C271.934 388.813 272.092 388.263 272.217 387.824C273.543 382.686 274.957 377.74 276.459 372.985C277.961 368.231 279.482 363.576 281.022 359.023L282.426 354.859C284.029 350.085 285.49 346.223 286.809 343.271C288.11 340.218 289.552 337.92 291.135 336.375C293.183 334.535 294.458 333.568 294.96 333.474C295.764 333.323 296.7 333.876 297.768 335.132C298.459 336.043 297.915 338.694 296.137 343.084C295.207 345.339 294.019 348.162 292.574 351.553C291.229 354.926 289.558 358.776 287.56 363.104C287.189 363.901 286.57 365.317 285.703 367.352C284.917 369.268 283.834 371.812 282.451 374.983C281.069 378.155 279.891 381.029 278.917 383.604C277.924 386.078 277.135 388.255 276.551 390.133C275.363 393.788 274.323 397.676 273.43 401.796C272.519 405.816 272.261 408.881 272.656 410.992C273.014 412.901 273.947 413.715 275.454 413.432C277.866 412.98 281.35 410.195 285.904 405.077C286.526 405.064 286.884 405.309 286.978 405.812C287.053 406.214 286.683 407.012 285.866 408.205C285.131 409.279 284.154 410.45 282.935 411.719C281.836 413.069 280.513 414.617 278.968 416.363L276.895 418.624C275.532 420.232 273.996 421.195 272.287 421.516ZM302.135 407.342C300.025 407.737 298.062 407.533 296.247 406.728C293.257 405.208 291.386 402.438 290.633 398.418C289.879 394.397 290.486 389.863 292.453 384.813C294.42 379.763 297.91 374.792 302.923 369.9C303.796 369.008 305.087 368.402 306.796 368.082C309.007 367.668 311.079 367.904 313.014 368.79C315.049 369.657 316.044 371.083 316 373.068C315.88 376.315 314.84 379.371 312.88 382.235C311.02 385.08 308.661 387.758 305.803 390.27C303.026 392.663 300.14 395.024 297.143 397.354C297.099 397.674 297.055 397.995 297.011 398.315C297.068 398.616 297.124 398.918 297.181 399.219C297.444 400.626 298.132 401.798 299.243 402.734C300.437 403.551 301.887 403.799 303.596 403.479C304.903 403.234 305.97 402.826 306.8 402.255C308.295 401.35 309.498 400.553 310.408 399.862C311.42 399.153 312.535 398.164 313.754 396.895C314.972 395.626 316.599 393.761 318.635 391.299C319.59 390.288 320.168 389.764 320.369 389.726C320.972 389.613 321.258 390.028 321.226 390.97C320.522 392.766 319.093 394.854 316.938 397.235C314.884 399.596 312.481 401.763 309.729 403.734C307.079 405.687 304.547 406.89 302.135 407.342ZM297.285 393.114C298.089 392.964 299.597 391.849 301.808 389.77C304.019 387.692 306.052 385.49 307.905 383.167C311.065 378.934 312.466 375.862 312.108 373.953C312.014 373.45 311.779 373.026 311.402 372.681C311.006 372.235 310.507 372.068 309.904 372.181C307.995 372.539 305.202 375.403 301.527 380.772C298.976 384.371 297.562 388.485 297.285 393.114Z" fill="#254C70"/>
<path d="M776.806 193.811C771.901 194.242 769.255 192.256 768.868 187.854C768.846 187.602 768.807 187.162 768.752 186.533C768.823 185.893 768.882 185.128 768.931 184.236C769.735 178.969 771.814 173.779 775.168 168.668C778.636 163.42 782.726 158.751 787.436 154.662C789.19 152.986 792.143 151.967 796.294 151.602C798.683 151.392 800.792 151.587 802.619 152.187C804.561 152.65 805.97 153.54 806.846 154.858C807.712 156.049 808.216 157.462 808.36 159.098C808.382 159.349 808.352 159.732 808.271 160.246C808.315 160.749 808.302 161.321 808.231 161.961C808.472 161.813 808.843 161.717 809.346 161.673C809.975 161.617 810.725 161.488 811.594 161.285C812.463 161.082 813.27 160.884 814.014 160.692C814.883 160.489 815.758 160.349 816.638 160.271L817.393 160.205C818.777 160.084 818.952 160.639 817.92 161.87C817.002 162.965 815.673 163.715 813.935 164.121L807.586 165.44C806.638 169.072 804.746 172.787 801.911 176.585C799.202 180.372 796.076 183.752 792.535 186.725C789.108 189.561 785.793 191.5 782.589 192.542C780.746 193.211 778.819 193.634 776.806 193.811ZM798.486 163.577C799.241 163.511 800.122 163.434 801.128 163.345C802.249 163.12 803.496 162.884 804.868 162.636C804.972 162.374 804.985 161.802 804.908 160.922C804.709 158.658 803.627 157.168 801.663 156.454C800.602 155.913 799.316 155.709 797.807 155.842C795.92 156.008 794.026 156.808 792.124 158.242C790.337 159.54 788.457 161.226 786.484 163.301C789.203 163.949 793.204 164.041 798.486 163.577ZM781.886 186.71C783.144 186.6 784.855 185.879 787.02 184.548C789.299 183.08 791.608 181.23 793.947 178.996C796.286 176.763 798.362 174.426 800.176 171.985C800.749 171.301 801.312 170.491 801.864 169.555C802.404 168.493 803.007 167.426 803.674 166.354L799.195 167.318C792.24 168.943 786.001 170.061 780.477 170.673C778.108 175.444 776.742 179.367 776.378 182.441C776.396 184.087 776.941 185.243 778.014 185.91C779.086 186.576 780.377 186.843 781.886 186.71ZM791.942 244.196C790.685 244.306 789.793 244.258 789.268 244.05C788.857 243.706 788.441 243.299 788.02 242.829C787.598 242.359 787.371 241.936 787.338 241.558C787.114 236.128 788.271 229.815 790.808 222.621C793.344 215.427 796.86 207.83 801.354 199.83C805.722 191.841 810.495 184.133 815.673 176.707C820.278 169.965 823.448 164.933 825.184 161.612C826.576 158.701 828.109 154.511 829.783 149.04C831.572 143.432 833.508 136.608 835.59 128.566C835.775 127.79 836.674 127.204 838.287 126.808C840.3 126.632 841.439 128.053 841.704 131.071C841.847 132.707 841.764 133.918 841.453 134.706C841.382 135.346 841.249 135.991 841.052 136.642C840.971 137.156 840.878 137.545 840.775 137.807C840.463 138.595 840.319 139.115 840.341 139.367C840.341 139.367 840.421 139.55 840.58 139.916C840.738 140.282 840.908 140.774 841.089 141.392C845.063 139.015 848.573 137.122 851.618 135.714C854.652 134.18 857.615 133.286 860.508 133.032C863.904 132.733 866.331 133.661 867.788 135.814C868.231 136.536 868.503 137.463 868.602 138.595C868.845 141.362 868.086 144.978 866.323 149.442C864.549 153.781 862.164 158.363 859.165 163.19C856.282 167.879 853.045 172.156 849.455 176.021C848.182 177.4 846.291 178.961 843.783 180.702C841.4 182.432 838.754 184.059 835.846 185.582C833.074 187.22 830.344 188.6 827.654 189.724C825.09 190.837 823.053 191.459 821.544 191.592C820.207 195.131 818.859 198.545 817.5 201.834C816.152 205.247 814.731 208.541 813.235 211.715C806.445 226.761 800.154 237.39 794.362 243.603C794.133 243.877 793.326 244.074 791.942 244.196ZM824.793 183.131C830.616 181.605 836.679 178.474 842.981 173.738C849.282 169.001 854.38 163.547 858.274 157.374C862.168 151.201 863.672 145.239 862.787 139.486C861.833 137.288 860.161 136.294 857.771 136.504C856.136 136.648 854.111 137.396 851.694 138.749C849.404 140.091 847.078 141.753 844.718 143.735C842.357 145.717 840.247 147.677 838.39 149.615C836.658 151.541 835.469 153.167 834.825 154.491C834.274 155.427 833.657 157.065 832.976 159.407C832.561 160.457 832.261 161.371 832.076 162.147C831.89 162.924 831.746 163.444 831.642 163.706C831.157 165.397 830.563 167.287 829.859 169.377C829.144 171.341 828.378 173.436 827.559 175.663L824.793 183.131ZM793.229 232.865C793.273 233.368 793.421 233.609 793.672 233.587C794.301 233.531 795.35 232.489 796.82 230.458C799.218 227.459 801.009 224.767 802.194 222.381C804.356 218.135 806.392 213.9 808.303 209.676C810.087 205.463 811.809 201.256 813.468 197.054C816.912 188.64 818.241 183.58 817.458 181.874C815.737 183.926 813.773 186.824 811.567 190.567C809.246 194.447 806.958 198.704 804.704 203.338C802.323 207.983 800.189 212.544 798.301 217.019C796.298 221.632 794.816 225.691 793.857 229.198C793.416 231.391 793.206 232.614 793.229 232.865ZM877.044 183.864C874.403 184.096 872.015 183.608 869.881 182.402C866.39 180.173 864.423 176.544 863.981 171.512C863.539 166.481 864.83 160.981 867.855 155.011C870.88 149.042 875.767 143.352 882.516 137.943C883.697 136.952 885.356 136.362 887.494 136.175C890.262 135.931 892.781 136.471 895.051 137.792C897.448 139.103 898.5 140.975 898.207 143.409C897.669 147.385 896.023 151.016 893.27 154.3C890.642 157.572 887.42 160.581 883.605 163.324C879.905 165.931 876.074 168.485 872.111 170.988C872.018 171.377 871.925 171.765 871.833 172.154C871.866 172.531 871.899 172.908 871.932 173.286C872.087 175.046 872.791 176.569 874.045 177.853C875.413 179 877.166 179.48 879.304 179.292C880.94 179.149 882.301 178.776 883.389 178.173C885.335 177.241 886.909 176.406 888.112 175.667C889.44 174.916 890.93 173.835 892.58 172.422C894.231 171.01 896.455 168.913 899.252 166.132C900.548 165.004 901.321 164.429 901.572 164.407C902.327 164.341 902.628 164.885 902.476 166.039C901.395 168.162 899.388 170.557 896.453 173.223C893.644 175.878 890.431 178.251 886.812 180.344C883.319 182.425 880.063 183.599 877.044 183.864ZM872.795 165.795C873.801 165.706 875.788 164.518 878.756 162.229C881.724 159.94 884.486 157.479 887.043 154.847C891.436 150.024 893.528 146.418 893.318 144.028C893.263 143.4 893.024 142.85 892.603 142.38C892.17 141.784 891.576 141.52 890.822 141.586C888.432 141.796 884.656 144.98 879.493 151.137C875.925 155.253 873.692 160.139 872.795 165.795ZM903.858 183.409C902.223 183.553 901.279 182.178 901.024 179.285C900.814 176.896 901.176 174.519 902.109 172.155C904.516 166.367 906.677 160.663 908.591 155.045C909.939 151.631 911.172 148.354 912.29 145.214C913.535 142.062 914.675 139.173 915.712 136.547C916.4 135.726 917.122 135.283 917.877 135.216C919.512 135.073 920.081 135.783 919.585 137.348C919.411 138.25 919.127 139.353 918.735 140.655C918.457 141.82 918.075 143.248 917.59 144.938C916.041 150.398 915.173 154.213 914.983 156.385C918.229 152.931 921.559 149.723 924.975 146.761C928.505 143.662 931.828 141.089 934.944 139.041C938.059 136.992 940.749 135.869 943.013 135.67C945.026 135.493 946.104 136.222 946.247 137.857C946.369 139.241 945.873 140.806 944.758 142.551C943.633 144.171 942.442 145.036 941.184 145.147C940.555 145.202 940.035 145.058 939.625 144.713C939.236 144.621 938.476 144.624 937.344 144.724C933.319 145.077 929.277 147.397 925.217 151.683C920.906 155.991 917.107 161.078 913.819 166.944C910.521 172.684 908.168 177.644 906.761 181.823C905.958 182.781 904.99 183.31 903.858 183.409ZM970.986 178.653C970.734 178.675 970.477 178.634 970.215 178.53C969.963 178.552 969.706 178.512 969.443 178.408C967.605 177.682 966.363 176.524 965.716 174.933C965.069 173.342 964.761 171.278 964.791 168.74C964.955 167.711 965.052 165.928 965.082 163.391C965.238 160.842 965.502 158.791 965.872 157.237L957.062 167.327L952.227 172.886C948.9 176.854 946.041 178.943 943.652 179.153C942.645 179.241 941.795 178.936 941.099 178.236C939.846 176.952 939.131 175.304 938.954 173.291C938.722 170.65 939.165 167.759 940.283 164.619C941.402 161.479 942.783 158.442 944.426 155.509C946.059 152.45 947.547 149.911 948.891 147.892C952.255 142.907 955.582 138.938 958.872 135.988C962.288 133.026 965.945 131.374 969.844 131.031C971.982 130.843 974.091 131.038 976.17 131.616C978.374 132.183 980.434 133.269 982.35 134.876L982.555 135.048C982.588 135.425 982.307 135.83 981.711 136.263C981.482 136.536 981.247 136.747 981.006 136.895C980.892 137.032 980.777 137.169 980.662 137.305C979.285 138.947 977.808 141.612 976.231 145.3C974.654 148.987 973.345 152.842 972.304 156.862C971.252 160.757 970.847 164.088 971.09 166.856C971.311 169.371 972.089 171.014 973.425 171.784C974.087 172.106 974.795 172.234 975.55 172.168C977.185 172.024 979.36 170.819 982.077 168.552C982.191 168.415 982.426 168.205 982.781 167.92C983.251 167.498 983.899 166.934 984.724 166.228C985.664 165.385 986.449 164.936 987.078 164.881C987.706 164.825 988.043 165.049 988.087 165.552C988.153 166.307 987.728 167.232 986.81 168.326C986.11 169.022 985.291 169.791 984.351 170.634C983.537 171.466 982.534 172.314 981.342 173.18C979.577 174.729 977.722 175.969 975.775 176.901C973.84 177.958 972.244 178.542 970.986 178.653ZM948.605 168.451C951.247 168.219 955.81 163.889 962.294 155.46C963.993 153.156 965.514 150.995 966.858 148.975C968.19 146.83 969.402 144.759 970.495 142.762C972.438 138.915 972.972 136.333 972.096 135.016C971.652 134.295 970.864 133.983 969.732 134.083C968.348 134.205 966.528 135.125 964.271 136.844C962.003 138.438 959.71 140.477 957.393 142.962C955.202 145.436 953.2 147.894 951.387 150.334C950.158 152.217 948.99 154.791 947.882 158.057C946.775 161.323 946.31 163.963 946.487 165.975C946.641 167.736 947.348 168.561 948.605 168.451Z" fill="#254C70"/>
</svg>
